# Blender 4.4.0
# www.blender.org
mtllib CardUpradge_animation.mtl
o Cube
v 0.077170 1.686663 0.998331
v 0.076442 1.735238 0.970347
v 0.077916 1.686663 0.970309
v 0.076442 -1.735238 0.970347
v 0.077170 -1.686663 0.998331
v 0.077916 -1.686663 0.970309
v 0.027374 1.686663 -0.973047
v 0.025900 1.735238 -0.973009
v 0.025172 1.686663 -1.000993
v 0.027374 -1.686663 -0.973047
v 0.025172 -1.686663 -1.000993
v 0.025900 -1.735238 -0.973009
v -0.025172 1.686663 1.000993
v -0.027374 1.686663 0.973047
v -0.025900 1.735238 0.973009
v -0.027374 -1.686663 0.973047
v -0.025172 -1.686663 1.000993
v -0.025900 -1.735238 0.973009
v -0.077916 1.686663 -0.970309
v -0.077170 1.686663 -0.998331
v -0.076442 1.735238 -0.970347
v -0.076442 -1.735238 -0.970347
v -0.077170 -1.686663 -0.998331
v -0.077916 -1.686663 -0.970309
vn -0.0000 -1.0000 -0.0000
vn -0.9997 -0.0000 0.0260
vn -0.0260 -0.0000 -0.9997
vn -0.0000 1.0000 -0.0000
vn 0.9997 -0.0000 -0.0260
vn 0.9992 0.0303 0.0266
vn 0.9992 -0.0303 0.0266
vn 0.9965 0.0303 -0.0785
vn 0.9965 -0.0303 -0.0785
vn -0.9965 0.0303 0.0785
vn -0.9965 -0.0303 0.0785
vn -0.9992 0.0303 -0.0266
vn -0.9992 -0.0303 -0.0266
vn -0.9992 -0.0303 0.0260
vn 0.0225 -0.4993 0.8661
vn 0.9996 -0.0000 0.0266
vn -0.9996 -0.0000 -0.0266
vn 0.9969 -0.0000 -0.0785
vn -0.9969 -0.0000 0.0785
vn -0.0225 0.4993 -0.8661
vn 0.9992 0.0303 -0.0260
vn -0.0225 -0.4993 -0.8661
vn -0.9992 0.0303 0.0260
vn 0.0225 0.4993 0.8661
vn 0.9992 -0.0303 -0.0260
vn 0.0260 -0.0000 0.9997
vt 0.398003 0.000000
vt 0.398003 0.398003
vt -0.000000 0.398003
vt 0.000000 0.000000
vt 0.398003 0.398003
vt 0.398003 0.000000
vt 0.679434 0.000000
vt 0.679434 0.398003
vt 0.398003 0.796007
vt 0.398003 0.398003
vt 0.679434 0.398003
vt 0.679434 0.796007
vt 0.398003 0.398004
vt 0.000000 0.796007
vt 0.000000 0.398003
vt 0.679434 0.398003
vt 0.679434 0.000000
vt 0.960865 0.000000
vt 0.960865 0.398003
vt -0.000000 0.798347
vt 0.006618 0.796007
vt 0.006618 0.803026
vt 0.013236 0.803026
vt 0.006618 0.800686
vt 0.013236 0.796007
vt 0.013236 0.798347
vt 0.019853 0.796007
vt 0.019853 0.803026
vt 0.019853 0.800686
vt 0.026471 0.796007
vt 0.026471 0.803026
vt 0.033089 0.803026
vt 0.026471 0.798347
vt 0.033089 0.796007
vt 0.033089 0.800686
vt 0.039707 0.796007
vt 0.039707 0.803026
vt 0.046324 0.803026
vt 0.039706 0.798347
vt 0.046324 0.796007
vt 0.052942 0.803026
vt 0.046324 0.800686
vt 0.052942 0.796007
vt 0.988538 0.398003
vt 0.988538 0.000000
vt 0.994269 0.000000
vt 0.994269 0.398003
vt 0.977075 0.398003
vt 0.977076 0.000000
vt 0.982807 0.000000
vt 0.982807 0.398003
vt 0.968970 0.000000
vt 0.968970 0.398003
vt 0.960865 0.796007
vt 0.960865 0.398004
vt 0.968970 0.398004
vt 0.968970 0.796007
vt 0.977075 0.000000
vt 0.977075 0.398003
vt 0.968970 0.398003
vt 0.968970 0.000000
vt 0.977075 0.398004
vt 0.977075 0.796007
vt 0.968970 0.796007
vt 0.968970 0.398004
vt 0.982807 0.796007
vt 0.977075 0.796007
vt 0.988538 0.796007
vt 0.988538 0.398003
vt 0.994269 0.398003
vt 0.994269 0.796007
vt 0.988538 0.000000
vt 1.000000 0.000000
vt 1.000000 0.398003
vt 0.982807 0.796007
vt 0.982807 0.398004
vt 0.988538 0.398004
vt 0.988538 0.796007
vt 1.000000 0.398003
vt 1.000000 0.796007
vt 0.994269 0.796007
vt 0.994269 0.398003
vt 0.679434 0.796007
vt 0.679434 0.398003
vt 0.960865 0.398003
vt 0.960865 0.796007
s 0
usemtl Material
f 18/1/1 22/4/1 12/3/1 4/2/1
f 24/5/2 16/8/2 14/7/2 19/6/2
f 11/9/3 23/12/3 20/11/3 9/10/3
f 2/13/4 8/15/4 21/14/4 15/9/4
f 6/16/5 10/19/5 7/18/5 3/17/5
f 1/20/6 3/22/6 2/21/6
f 4/23/7 6/25/7 5/24/7
f 7/26/8 9/28/8 8/27/8
f 10/29/9 12/31/9 11/30/9
f 13/32/10 15/34/10 14/33/10
f 16/35/11 18/37/11 17/36/11
f 19/38/12 21/40/12 20/39/12
f 22/41/13 24/43/13 23/42/13
f 18/44/14 16/47/14 24/46/14 22/45/14
f 4/48/15 5/51/15 17/50/15 18/49/15
f 3/52/16 1/18/16 5/19/16 6/53/16
f 23/54/17 24/57/17 19/56/17 20/55/17
f 9/58/18 7/61/18 10/60/18 11/59/18
f 13/62/19 14/65/19 16/64/19 17/63/19
f 8/51/20 9/48/20 20/67/20 21/66/20
f 2/68/21 3/71/21 7/70/21 8/69/21
f 22/72/22 23/50/22 11/51/22 12/44/22
f 21/73/23 19/46/23 14/47/23 15/74/23
f 15/75/24 13/78/24 1/77/24 2/76/24
f 12/79/25 10/82/25 6/81/25 4/80/25
f 17/83/26 5/86/26 1/85/26 13/84/26
