# Blender 4.3.1
# www.blender.org
mtllib folder.mtl
o Cube
v -0.184848 -0.730309 -0.846240
v -0.184848 0.498550 -0.846240
v -0.187384 0.470802 -0.846240
v -0.184848 0.470802 -0.891400
v -0.077627 -0.730309 1.063440
v -0.077627 -0.702562 1.108600
v -0.075091 -0.702562 1.063440
v -0.077627 0.551862 1.108600
v -0.077627 0.579610 1.063440
v -0.075091 0.551862 1.063440
v -0.075091 -0.702562 -0.846240
v -0.077627 -0.702562 -0.891400
v -0.077627 -0.730309 -0.846240
v -0.077627 0.498550 -0.846240
v -0.077627 0.470802 -0.891400
v -0.075091 0.470802 -0.846240
v 0.056146 0.586682 -0.954840
v 0.053611 0.586682 -1.000000
v 0.053611 0.614430 -0.954840
v 0.053611 -0.614430 -0.954840
v 0.053611 -0.586682 -1.000000
v 0.056146 -0.586682 -0.954840
v 0.056146 0.667742 0.954840
v 0.053611 0.695490 0.954840
v 0.053611 0.667742 1.000000
v 0.056146 -0.586682 0.954840
v 0.053611 -0.586682 1.000000
v 0.053611 -0.614430 0.954840
v -0.053611 0.586682 -1.000000
v -0.056146 0.586682 -0.954840
v -0.053611 0.614430 -0.954840
v -0.053611 -0.614430 -0.954840
v -0.056146 -0.586682 -0.954840
v -0.053611 -0.586682 -1.000000
v -0.056146 0.667742 0.954840
v -0.053611 0.667742 1.000000
v -0.053611 0.695490 0.954840
v -0.053611 -0.614430 0.954840
v -0.053611 -0.586682 1.000000
v -0.056146 -0.586682 0.954840
v -0.056146 -0.586682 0.736096
v -0.056146 -0.586682 0.645776
v -0.053611 -0.614430 0.645776
v -0.053611 -0.614430 0.736096
v 0.053611 0.695490 0.736096
v 0.056146 0.667742 0.736096
v 0.056146 0.561005 0.645776
v 0.053611 0.670008 0.673061
v -0.053611 0.695490 0.736096
v -0.053611 0.670008 0.673061
v -0.056146 0.561005 0.645776
v -0.056146 0.667742 0.736096
v 0.053611 -0.614430 0.736096
v 0.053611 -0.614430 0.645776
v 0.056146 -0.586682 0.645776
v 0.056146 -0.586682 0.736096
v -0.056146 0.586682 0.588915
v -0.056146 0.608705 0.679235
v -0.053611 0.639911 0.651949
v -0.053611 0.614430 0.588915
v 0.056146 -0.586682 0.588915
v 0.056146 -0.586682 0.679235
v 0.053611 -0.614430 0.679235
v 0.053611 -0.614430 0.588915
v -0.056146 -0.586682 0.679235
v -0.056146 -0.586682 0.588915
v -0.053611 -0.614430 0.588915
v -0.053611 -0.614430 0.679235
v 0.056146 0.608705 0.679235
v 0.056146 0.586682 0.588915
v 0.053611 0.614430 0.588915
v 0.053611 0.639911 0.651949
v -0.187384 -0.702562 -0.846240
v -0.184848 -0.702562 -0.891400
v -0.187384 0.551862 1.063440
v -0.184848 0.551862 1.108600
v -0.184848 0.579610 1.063440
v -0.184848 -0.730309 1.063440
v -0.184848 -0.702562 1.108600
v -0.187384 -0.702562 1.063440
v -0.187384 -0.702562 0.844696
v -0.187384 -0.702562 0.754376
v -0.184848 -0.730309 0.754376
v -0.184848 -0.730309 0.844696
v -0.077627 0.579610 0.844696
v -0.075091 0.551862 0.844696
v -0.075091 0.445125 0.754376
v -0.077627 0.554128 0.781662
v -0.184848 0.579610 0.844696
v -0.184848 0.554128 0.781662
v -0.187384 0.445125 0.754376
v -0.187384 0.551862 0.844696
v -0.077627 -0.730309 0.844696
v -0.077627 -0.730309 0.754376
v -0.075091 -0.702562 0.754376
v -0.075091 -0.702562 0.844696
v -0.187384 0.470802 0.697515
v -0.187384 0.492825 0.787835
v -0.184848 0.524031 0.760550
v -0.184848 0.498550 0.697515
v -0.075091 -0.702562 0.697515
v -0.075091 -0.702562 0.787835
v -0.077627 -0.730309 0.787835
v -0.077627 -0.730309 0.697515
v -0.187384 -0.702562 0.787835
v -0.187384 -0.702562 0.697515
v -0.184848 -0.730309 0.697515
v -0.184848 -0.730309 0.787835
v -0.075091 0.492825 0.787835
v -0.075091 0.470802 0.697515
v -0.077627 0.498550 0.697515
v -0.077627 0.524031 0.760550
vn -0.0000 -1.0000 -0.0000
vn -0.0000 1.0000 -0.0000
vn -1.0000 -0.0000 -0.0000
vn -0.0000 -0.0000 1.0000
vn -0.0000 0.5743 -0.8187
vn 1.0000 -0.0000 -0.0000
vn -0.0000 -0.0000 -1.0000
vn 0.9943 0.0909 -0.0558
vn 0.9943 -0.0909 -0.0558
vn 0.9943 0.0909 0.0558
vn 0.9943 -0.0909 0.0558
vn -0.9943 0.0909 -0.0558
vn -0.9943 -0.0909 -0.0558
vn -0.9943 0.0909 0.0558
vn -0.9943 -0.0909 0.0558
vn -0.9959 -0.0910 -0.0000
vn 0.9983 0.0447 -0.0385
vn -0.9983 0.0447 -0.0385
vn 0.9959 -0.0910 -0.0000
vn -0.9969 0.0750 -0.0232
vn 0.9969 0.0750 -0.0232
vn -0.0000 -0.8520 -0.5235
vn 0.9984 -0.0000 -0.0561
vn -0.9984 -0.0000 0.0561
vn 0.9984 -0.0000 0.0561
vn -0.9984 -0.0000 -0.0561
vn -0.0000 0.8520 0.5235
vn 0.9959 0.0910 -0.0000
vn -0.0000 -0.8520 0.5235
vn -0.9959 0.0910 -0.0000
vn -0.0000 0.8520 -0.5235
vn -0.9980 -0.0361 0.0515
vn -0.0000 0.9271 -0.3748
vn 0.9980 -0.0361 0.0515
vt 0.130645 0.643265
vt 0.369355 0.643265
vt 0.369355 0.731735
vt 0.130645 0.731735
vt 0.630645 0.643265
vt 0.869355 0.643265
vt 0.869355 0.731735
vt 0.630645 0.731735
vt 0.380296 0.018265
vt 0.619704 0.018265
vt 0.619704 0.106735
vt 0.380296 0.106735
vt 0.380645 0.189227
vt 0.619355 0.189227
vt 0.619355 0.248273
vt 0.380645 0.248273
vt 0.380296 0.755645
vt 0.619704 0.755645
vt 0.619704 0.994355
vt 0.380296 0.994355
vt 0.630645 0.501727
vt 0.869355 0.501727
vt 0.869355 0.560773
vt 0.630645 0.560773
vt 0.630645 0.582147
vt 0.869355 0.582147
vt 0.869355 0.605353
vt 0.630645 0.605353
vt 0.380563 0.174639
vt 0.611087 0.174639
vt 0.611578 0.137861
vt 0.380378 0.137861
vt 0.380378 0.612139
vt 0.611578 0.612139
vt 0.611087 0.575361
vt 0.380563 0.575361
vt 0.130645 0.501727
vt 0.369355 0.501727
vt 0.369355 0.560773
vt 0.130645 0.560773
vt 0.380296 0.643265
vt 0.619704 0.643265
vt 0.619704 0.731735
vt 0.380296 0.731735
vt 0.380645 0.255645
vt 0.619355 0.255645
vt 0.619355 0.494355
vt 0.380645 0.494355
vt 0.130645 0.612139
vt 0.369355 0.612139
vt 0.369355 0.575361
vt 0.130645 0.575361
vt 0.619355 0.500000
vt 0.625000 0.494355
vt 0.369355 0.500000
vt 0.375000 0.501727
vt 0.619704 0.750000
vt 0.625000 0.755645
vt 0.375000 0.731735
vt 0.369355 0.750000
vt 0.619355 0.250000
vt 0.625000 0.248273
vt 0.125000 0.501727
vt 0.130645 0.500000
vt 0.619704 0.000000
vt 0.625000 0.018265
vt 0.130645 0.750000
vt 0.125000 0.731735
vt 0.125000 0.643265
vt 0.125000 0.625000
vt 0.130645 0.625000
vt 0.625000 0.106735
vt 0.620137 0.125000
vt 0.599333 0.125000
vt 0.623835 0.187500
vt 0.625000 0.187500
vt 0.625000 0.189227
vt 0.380645 0.560773
vt 0.125000 0.612139
vt 0.125000 0.562500
vt 0.130645 0.562500
vt 0.619355 0.560773
vt 0.619355 0.501727
vt 0.380645 0.501727
vt 0.380296 0.000000
vt 0.625000 0.994355
vt 0.369355 0.750000
vt 0.625000 0.255645
vt 0.125000 0.575361
vt 0.625000 0.144647
vt 0.625000 0.167853
vt 0.125000 0.560773
s 0
usemtl Material
f 44/1/1 53/2/1 28/3/1 38/4/1
f 45/5/2 49/6/2 37/7/2 24/8/2
f 40/9/3 35/10/3 52/11/3 41/12/3
f 66/13/3 57/14/3 30/15/3 33/16/3
f 27/17/4 25/18/4 36/19/4 39/20/4
f 19/21/2 31/22/2 60/23/2 71/24/2
f 84/1/1 93/2/1 5/3/1 78/4/1
f 72/25/5 59/26/5 50/27/5 48/28/5
f 42/29/6 51/30/6 58/31/6 65/32/6
f 62/33/3 69/34/3 47/35/3 55/36/3
f 32/37/1 20/38/1 64/39/1 67/40/1
f 56/41/6 46/42/6 23/43/6 26/44/6
f 34/45/7 29/46/7 18/47/7 21/48/7
f 68/49/2 63/50/2 54/51/2 43/52/2
f 17/53/8 18/47/8 19/54/8
f 20/38/9 21/55/9 22/56/9
f 23/57/10 24/58/10 25/18/10
f 26/59/11 27/60/11 28/3/11
f 29/61/12 30/15/12 31/62/12
f 32/37/13 33/63/13 34/64/13
f 35/10/14 36/65/14 37/66/14
f 38/4/15 39/67/15 40/68/15
f 41/69/16 42/70/16 43/71/16 44/1/16
f 45/5/17 46/42/17 47/35/17 48/28/17
f 49/72/18 50/73/18 51/74/18 52/11/18
f 53/2/19 54/51/19 55/36/19 56/41/19
f 57/14/20 58/75/20 59/76/20 60/77/20
f 61/78/19 62/33/19 63/50/19 64/39/19
f 65/79/16 66/80/16 67/81/16 68/49/16
f 69/34/21 70/82/21 71/24/21 72/25/21
f 44/1/16 38/4/16 40/68/16 41/69/16
f 20/38/22 32/37/22 34/64/22 21/55/22
f 17/83/23 22/84/23 21/48/23 18/47/23
f 39/85/24 36/65/24 35/10/24 40/9/24
f 25/18/25 27/17/25 26/44/25 23/43/25
f 29/46/26 34/45/26 33/16/26 30/15/26
f 24/58/27 37/86/27 36/19/27 25/18/27
f 45/5/28 24/8/28 23/43/28 46/42/28
f 38/4/29 28/3/29 27/87/29 39/67/29
f 60/77/30 31/62/30 30/15/30 57/14/30
f 31/88/31 19/54/31 18/47/31 29/46/31
f 64/39/19 20/38/19 22/84/19 61/78/19
f 68/49/28 43/52/28 42/89/28 65/79/28
f 72/25/32 48/28/32 47/35/32 69/34/32
f 37/66/30 49/72/30 52/11/30 35/10/30
f 28/3/19 53/2/19 56/41/19 26/44/19
f 46/42/6 56/41/6 55/36/6 47/35/6
f 53/2/1 44/1/1 43/52/1 54/51/1
f 51/30/3 42/29/3 41/12/3 52/11/3
f 49/6/33 45/5/33 48/28/33 50/27/33
f 50/90/34 59/91/34 58/31/34 51/30/34
f 54/51/30 63/50/30 62/33/30 55/36/30
f 32/37/16 67/40/16 66/92/16 33/63/16
f 19/21/28 71/24/28 70/82/28 17/83/28
f 59/26/33 72/25/33 71/24/33 60/23/33
f 63/50/1 68/49/1 67/40/1 64/39/1
f 69/34/6 62/33/6 61/78/6 70/82/6
f 57/14/3 66/13/3 65/32/3 58/31/3
f 22/84/6 17/83/6 70/82/6 61/78/6
f 85/5/2 89/6/2 77/7/2 9/8/2
f 80/9/3 75/10/3 92/11/3 81/12/3
f 106/13/3 97/14/3 3/15/3 73/16/3
f 6/17/4 8/18/4 76/19/4 79/20/4
f 14/21/2 2/22/2 100/23/2 111/24/2
f 112/25/5 99/26/5 90/27/5 88/28/5
f 82/29/6 91/30/6 98/31/6 105/32/6
f 102/33/3 109/34/3 87/35/3 95/36/3
f 1/37/1 13/38/1 104/39/1 107/40/1
f 96/41/6 86/42/6 10/43/6 7/44/6
f 74/45/7 4/46/7 15/47/7 12/48/7
f 108/49/2 103/50/2 94/51/2 83/52/2
f 16/53/8 15/47/8 14/54/8
f 13/38/9 12/55/9 11/56/9
f 10/57/10 9/58/10 8/18/10
f 7/59/11 6/60/11 5/3/11
f 4/61/12 3/15/12 2/62/12
f 1/37/13 73/63/13 74/64/13
f 75/10/14 76/65/14 77/66/14
f 78/4/15 79/67/15 80/68/15
f 81/69/16 82/70/16 83/71/16 84/1/16
f 85/5/17 86/42/17 87/35/17 88/28/17
f 89/72/18 90/73/18 91/74/18 92/11/18
f 93/2/19 94/51/19 95/36/19 96/41/19
f 97/14/20 98/75/20 99/76/20 100/77/20
f 101/78/19 102/33/19 103/50/19 104/39/19
f 105/79/16 106/80/16 107/81/16 108/49/16
f 109/34/21 110/82/21 111/24/21 112/25/21
f 84/1/16 78/4/16 80/68/16 81/69/16
f 13/38/22 1/37/22 74/64/22 12/55/22
f 16/83/23 11/84/23 12/48/23 15/47/23
f 79/85/24 76/65/24 75/10/24 80/9/24
f 8/18/25 6/17/25 7/44/25 10/43/25
f 4/46/26 74/45/26 73/16/26 3/15/26
f 9/58/27 77/86/27 76/19/27 8/18/27
f 85/5/28 9/8/28 10/43/28 86/42/28
f 78/4/29 5/3/29 6/87/29 79/67/29
f 100/77/30 2/62/30 3/15/30 97/14/30
f 2/88/31 14/54/31 15/47/31 4/46/31
f 104/39/19 13/38/19 11/84/19 101/78/19
f 108/49/28 83/52/28 82/89/28 105/79/28
f 112/25/32 88/28/32 87/35/32 109/34/32
f 77/66/30 89/72/30 92/11/30 75/10/30
f 5/3/19 93/2/19 96/41/19 7/44/19
f 86/42/6 96/41/6 95/36/6 87/35/6
f 93/2/1 84/1/1 83/52/1 94/51/1
f 91/30/3 82/29/3 81/12/3 92/11/3
f 89/6/33 85/5/33 88/28/33 90/27/33
f 90/90/34 99/91/34 98/31/34 91/30/34
f 94/51/30 103/50/30 102/33/30 95/36/30
f 1/37/16 107/40/16 106/92/16 73/63/16
f 14/21/28 111/24/28 110/82/28 16/83/28
f 99/26/33 112/25/33 111/24/33 100/23/33
f 103/50/1 108/49/1 107/40/1 104/39/1
f 109/34/6 102/33/6 101/78/6 110/82/6
f 97/14/3 106/13/3 105/32/3 98/31/3
f 11/84/6 16/83/6 110/82/6 101/78/6
